<svg xmlns="http://www.w3.org/2000/svg" viewBox="0 0 400 400">
  <rect width="400" height="400" fill="#ffffff"/>

  <!-- M: x 95-157, centered at 126. Stroke-based serif M -->
  <path d="
    M 100,238 L 100,148
    M 100,148 L 114,148 L 128,196
    M 128,196 L 142,148 L 156,148
    M 156,148 L 156,238
    M 128,196 L 128,148
  " stroke="#111111" stroke-width="10" stroke-linecap="round" stroke-linejoin="round" fill="none"/>

  <!-- E: x 210-262, centered at 236. Solid E -->
  <path d="
    M 210,238 L 210,148 L 262,148 L 262,166 L 235,166
    L 235,188 L 257,188 L 257,206 L 235,206
    L 235,220 L 262,220 L 262,238 Z
  " fill="#111111" stroke="#111111" stroke-width="2" stroke-linejoin="round"/>

  <!-- Rule -->
  <rect x="100" y="266" width="162" height="1.5" fill="#111111"/>

  <!-- MAGIC ECON in paths (no font dependency) -->
  <!-- M: x≈140, A:≈162, G≈184, I≈202, C≈215 -->
  <!-- E≈232, C≈254, O≈276, N≈298 -->
  <!-- letters at 18px equivalent, stroke width 3.5 -->
  <g stroke="#555555" stroke-width="3.5" fill="none" stroke-linecap="round">
    <!-- M: x130-158 -->
    <path d="M 130,284 L 130,302 M 130,284 L 138,302 M 138,302 L 146,284 M 146,284 L 154,302 M 154,302 L 154,284"/>
    <!-- A: x159-175 -->
    <path d="M 159,302 L 167,284 M 167,284 L 175,302 M 162,296 L 172,296"/>
    <!-- G: x180-197 -->
    <path d="M 197,289 Q 180,282 180,293 Q 180,304 197,297 L 197,302 L 190,302"/>
    <!-- I: x202-208 -->
    <path d="M 205,284 L 205,302"/>
    <!-- C: x213-230 -->
    <path d="M 230,289 Q 213,282 213,293 Q 213,304 230,297"/>
    <!-- E: x235-252 -->
    <path d="M 252,284 L 235,284 L 235,302 L 252,302 M 235,293 L 248,293"/>
    <!-- O: x257-275 -->
    <path d="M 266,284 Q 257,282 257,293 Q 257,304 266,302 Q 275,304 275,293 Q 275,282 266,284"/>
    <!-- N: x280-298 -->
    <path d="M 280,302 L 280,284 L 298,302 L 298,284"/>
  </g>

  <!-- Red dot -->
  <circle cx="181" cy="322" r="4" fill="#c8102e"/>
</svg>
